<?xml version="1.0" encoding="UTF-8" standalone="no"?>
<svg
   xmlns:dc="http://purl.org/dc/elements/1.1/"
   xmlns:cc="http://creativecommons.org/ns#"
   xmlns:rdf="http://www.w3.org/1999/02/22-rdf-syntax-ns#"
   xmlns:svg="http://www.w3.org/2000/svg"
   xmlns="http://www.w3.org/2000/svg"
   version="1.1"
   id="svg2"
   viewBox="0 0 222.18426 97.320991"
   height="27.466146mm"
   width="62.705338mm">
  <g
     transform="translate(-120.13415,-311.41934)">
    <path
       style="fill:#333"
       d="m 179.75167,343.79077 -23.90625,60 -9.43359,0 -22.73438,-60 10.54688,0 15.23437,43.59375 q 1.69922,4.80469 2.10938,8.37891 l 0.23437,0 q 0.58594,-4.51172 1.875,-8.14453 l 15.9375,-43.82813 10.13672,0 z" />
    <path
       style="fill:#333"
       d="m 232.9548,403.79077 -9.60938,0 0,-9.375 -0.23437,0 q -6.26954,10.78125 -18.45704,10.78125 -8.96484,0 -14.0625,-4.74609 -5.03906,-4.7461 -5.03906,-12.59766 0,-16.8164 19.80469,-19.57031 l 17.98828,-2.51953 q 0,-15.29297 -12.36328,-15.29297 -10.83984,0 -19.57031,7.38281 l 0,-9.84375 q 8.84765,-5.625 20.39062,-5.625 21.15235,0 21.15235,22.38281 l 0,39.02344 z m -9.60938,-30.35156 -14.47266,1.99219 q -6.67968,0.9375 -10.07812,3.33984 -3.39844,2.34375 -3.39844,8.37891 0,4.39453 3.10547,7.20703 3.16406,2.7539 8.37891,2.7539 7.14843,0 11.77734,-4.98046 4.6875,-5.03907 4.6875,-12.71485 l 0,-5.97656 z" />
    <path
       style="fill:#333"
       d="m 300.98214,403.79077 -13.47656,0 -26.48438,-28.82812 -0.23437,0 0,28.82812 -9.60938,0 0,-88.82812 9.60938,0 0,56.30859 0.23437,0 25.19531,-27.48047 12.59766,0 -27.83203,28.94531 30,31.05469 z" />
    <path
       style="fill:#333"
       d="m 338.77511,403.20483 q -3.39844,1.875 -8.96485,1.875 -15.76171,0 -15.76171,-17.57812 l 0,-35.50781 -10.3125,0 0,-8.20313 10.3125,0 0,-14.64844 9.60937,-3.10546 0,17.7539 15.11719,0 0,8.20313 -15.11719,0 0,33.80859 q 0,6.03516 2.05078,8.61328 2.05078,2.57813 6.79688,2.57813 3.63281,0 6.26953,-1.99219 l 0,8.20312 z" />
  </g>
</svg>
